<svg width="22" height="22" viewBox="0 0 22 22" fill="none" xmlns="http://www.w3.org/2000/svg">
<path d="M9.87487 3.20372C10.0455 3.17936 10.2097 3.12163 10.358 3.03382C10.5063 2.94602 10.6359 2.82986 10.7393 2.69197C10.8428 2.55409 10.918 2.39719 10.9608 2.23022C11.0036 2.06325 11.0131 1.88948 10.9887 1.71885C10.9644 1.54821 10.9066 1.38404 10.8188 1.23572C10.731 1.08739 10.6149 0.957814 10.477 0.854381C10.3391 0.750948 10.1822 0.675686 10.0152 0.632892C9.84827 0.590099 9.6745 0.580611 9.50387 0.604971C7.5746 0.882572 5.76066 1.69161 4.26506 2.94154C2.76947 4.19147 1.65124 5.83296 1.03553 7.68229C0.419821 9.53163 0.330933 11.5158 0.778814 13.4128C1.22669 15.3098 2.19367 17.0447 3.57151 18.4233C4.94935 19.802 6.68369 20.77 8.5804 21.219C10.4771 21.668 12.4614 21.5803 14.3111 20.9656C16.1608 20.351 17.8029 19.2338 19.0537 17.7389C20.3045 16.244 21.1146 14.4306 21.3934 12.5015C21.4426 12.1569 21.3528 11.8068 21.144 11.5283C20.9351 11.2499 20.6241 11.0658 20.2795 11.0166C19.9349 10.9674 19.5848 11.0571 19.3064 11.266C19.0279 11.4749 18.8438 11.7859 18.7946 12.1305C18.5851 13.5771 17.9772 14.9369 17.0389 16.0577C16.1006 17.1785 14.869 18.0162 13.4818 18.4769C12.0945 18.9376 10.6065 19.0032 9.18411 18.6663C7.76173 18.3295 6.46113 17.6035 5.42784 16.5696C4.39455 15.5357 3.66934 14.2347 3.33335 12.8121C2.99735 11.3896 3.06384 9.90154 3.52535 8.51459C3.98687 7.12765 4.82522 5.89648 5.94659 4.95885C7.06796 4.02122 8.42811 3.41237 9.87487 3.20372ZM14.5001 1.09672C14.1717 0.980689 13.8107 0.999854 13.4965 1.15C13.1822 1.30015 12.9405 1.56898 12.8245 1.89735C12.7085 2.22572 12.7276 2.58673 12.8778 2.90097C13.0279 3.21521 13.2967 3.45694 13.6251 3.57297C14.1536 3.75964 14.6529 3.99764 15.1231 4.28697C15.2699 4.38259 15.4344 4.44785 15.6068 4.47892C15.7792 4.50998 15.9561 4.50621 16.127 4.46783C16.2979 4.42945 16.4595 4.35725 16.602 4.25546C16.7446 4.15368 16.8654 4.02438 16.9572 3.87519C17.0491 3.72599 17.1101 3.55993 17.1367 3.38678C17.1634 3.21362 17.1551 3.03689 17.1123 2.867C17.0696 2.6971 16.9933 2.53748 16.8879 2.39755C16.7825 2.25762 16.6501 2.1402 16.4986 2.05222C15.868 1.66415 15.1981 1.34386 14.5001 1.09672ZM19.9514 5.50672C19.8634 5.35523 19.746 5.22288 19.606 5.11748C19.4661 5.01207 19.3065 4.93575 19.1366 4.89301C18.9667 4.85027 18.79 4.84198 18.6168 4.86861C18.4437 4.89525 18.2776 4.95628 18.1284 5.04811C17.9792 5.13994 17.8499 5.26071 17.7481 5.40329C17.6463 5.54588 17.5741 5.7074 17.5358 5.87833C17.4974 6.04927 17.4936 6.22615 17.5247 6.39857C17.5557 6.57098 17.621 6.73543 17.7166 6.88222C18.0048 7.34889 18.2416 7.84472 18.4271 8.36972C18.5472 8.69247 18.7894 8.95508 19.1013 9.10093C19.4133 9.24677 19.7701 9.26417 20.0948 9.14936C20.4194 9.03456 20.686 8.79675 20.8369 8.48722C20.9878 8.17768 21.0111 7.82123 20.9016 7.49472C20.6555 6.80056 20.337 6.13423 19.9514 5.50672ZM11.0001 7.06247C11.0001 6.71437 10.8618 6.38053 10.6157 6.13439C10.3696 5.88825 10.0357 5.74997 9.68762 5.74997C9.33952 5.74997 9.00568 5.88825 8.75954 6.13439C8.5134 6.38053 8.37512 6.71437 8.37512 7.06247V12.3125C8.37512 13.037 8.96312 13.625 9.68762 13.625H13.1876C13.5357 13.625 13.8696 13.4867 14.1157 13.2405C14.3618 12.9944 14.5001 12.6606 14.5001 12.3125C14.5001 11.9644 14.3618 11.6305 14.1157 11.3844C13.8696 11.1383 13.5357 11 13.1876 11H11.0001V7.06247Z" fill="#E68D4F"/>
</svg>
