<svg width="25" height="28" viewBox="0 0 25 28" fill="none" xmlns="http://www.w3.org/2000/svg">
<path d="M0 8.4V4.17233e-08H1.73333V8.4C1.73333 9.14261 2.00726 9.8548 2.49486 10.3799C2.98245 10.905 3.64377 11.2 4.33333 11.2C5.0229 11.2 5.68422 10.905 6.17181 10.3799C6.65941 9.8548 6.93333 9.14261 6.93333 8.4V2.8C6.93333 2.55246 6.84202 2.31507 6.67949 2.14003C6.51696 1.965 6.29652 1.86667 6.06667 1.86667C5.83681 1.86667 5.61637 1.965 5.45384 2.14003C5.29131 2.31507 5.2 2.55246 5.2 2.8V9.33333H3.46667V2.8C3.46667 2.4323 3.53392 2.0682 3.66458 1.72849C3.79524 1.38877 3.98676 1.08011 4.22819 0.820101C4.46962 0.560097 4.75624 0.353851 5.07169 0.213137C5.38714 0.0724241 5.72523 0 6.06667 0C6.4081 0 6.7462 0.0724241 7.06164 0.213137C7.37709 0.353851 7.66371 0.560097 7.90514 0.820101C8.14658 1.08011 8.33809 1.38877 8.46875 1.72849C8.59942 2.0682 8.66667 2.4323 8.66667 2.8V8.4C8.66667 9.63768 8.21012 10.8247 7.39746 11.6998C6.5848 12.575 5.4826 13.0667 4.33333 13.0667C3.18406 13.0667 2.08186 12.575 1.2692 11.6998C0.456546 10.8247 0 9.63768 0 8.4Z" fill="#E68D4F"/>
<path fill-rule="evenodd" clip-rule="evenodd" d="M21.6667 0H10.4001V8.4C10.4001 10.1327 9.7609 11.7945 8.62318 13.0198C7.48546 14.245 5.94238 14.9333 4.3334 14.9333H1.7334V25.2C1.7334 25.9426 2.00733 26.6548 2.49492 27.1799C2.98252 27.705 3.64384 28 4.3334 28H21.6667C22.3563 28 23.0176 27.705 23.5052 27.1799C23.9928 26.6548 24.2667 25.9426 24.2667 25.2V2.8C24.2667 2.05739 23.9928 1.3452 23.5052 0.820101C23.0176 0.294999 22.3563 0 21.6667 0ZM19.0667 7.46667H12.1334V9.33333H19.0667V7.46667ZM19.0667 13.0667H12.1334V14.9333H19.0667V13.0667ZM6.9334 18.6667H19.0667V20.5333H6.9334V18.6667Z" fill="#E68D4F"/>
</svg>
