<svg width="20" height="20" viewBox="0 0 20 20" fill="none" xmlns="http://www.w3.org/2000/svg">
<path d="M9.08333 14.5835H10.9167V9.0835H9.08333V14.5835ZM10 7.25016C10.2597 7.25016 10.4776 7.16216 10.6536 6.98616C10.8296 6.81016 10.9173 6.59261 10.9167 6.3335C10.9161 6.07438 10.8281 5.85683 10.6527 5.68083C10.4773 5.50483 10.2597 5.41683 10 5.41683C9.74027 5.41683 9.52272 5.50483 9.34733 5.68083C9.17194 5.85683 9.08394 6.07438 9.08333 6.3335C9.08272 6.59261 9.17072 6.81047 9.34733 6.98708C9.52394 7.16369 9.7415 7.25138 10 7.25016ZM10 19.1668C8.73194 19.1668 7.54027 18.9261 6.425 18.4445C5.30972 17.9629 4.33958 17.31 3.51458 16.4856C2.68958 15.6612 2.03661 14.6911 1.55566 13.5752C1.07472 12.4593 0.833941 11.2676 0.833329 10.0002C0.832718 8.73272 1.0735 7.54105 1.55566 6.42516C2.03783 5.30927 2.6908 4.33913 3.51458 3.51475C4.33836 2.69036 5.3085 2.03738 6.425 1.55583C7.5415 1.07427 8.73316 0.833496 10 0.833496C11.2668 0.833496 12.4585 1.07427 13.575 1.55583C14.6915 2.03738 15.6616 2.69036 16.4854 3.51475C17.3092 4.33913 17.9625 5.30927 18.4452 6.42516C18.928 7.54105 19.1685 8.73272 19.1667 10.0002C19.1648 11.2676 18.9241 12.4593 18.4443 13.5752C17.9646 14.6911 17.3116 15.6612 16.4854 16.4856C15.6592 17.31 14.6891 17.9632 13.575 18.4454C12.4609 18.9276 11.2693 19.1681 10 19.1668Z" fill="#E68D4F"/>
</svg>
