<svg width="26" height="32" viewBox="0 0 26 32" fill="none" xmlns="http://www.w3.org/2000/svg">
<path d="M6.66659 25.4998H19.3333V22.3332H6.66659V25.4998ZM6.66659 19.1665H19.3333V15.9998H6.66659V19.1665ZM3.49992 31.8332C2.62909 31.8332 1.88386 31.5234 1.26425 30.9038C0.644641 30.2841 0.334308 29.5384 0.333252 28.6665V3.33317C0.333252 2.46234 0.643585 1.71712 1.26425 1.0975C1.88492 0.477893 2.63014 0.167559 3.49992 0.166504H16.1666L25.6666 9.6665V28.6665C25.6666 29.5373 25.3568 30.2831 24.7372 30.9038C24.1176 31.5244 23.3718 31.8342 22.4999 31.8332H3.49992ZM14.5833 11.2498H22.4999L14.5833 3.33317V11.2498Z" fill="#E68D4F"/>
</svg>
