<svg width="27" height="31" viewBox="0 0 27 31" fill="none" xmlns="http://www.w3.org/2000/svg">
<path d="M19.0834 16.0001C15.1734 16.0001 12 19.1734 12 23.0834C12 26.9934 15.1734 30.1667 19.0834 30.1667C22.9934 30.1667 26.1667 26.9934 26.1667 23.0834C26.1667 19.1734 22.9934 16.0001 19.0834 16.0001ZM21.4209 26.4126L18.375 23.3667V18.8334H19.7917V22.7859L22.4125 25.4067L21.4209 26.4126ZM20.5 3.25008H15.995C15.4 1.60675 13.8417 0.416748 12 0.416748C10.1584 0.416748 8.60002 1.60675 8.00502 3.25008H3.50002C1.94169 3.25008 0.666687 4.52508 0.666687 6.08341V27.3334C0.666687 28.8917 1.94169 30.1667 3.50002 30.1667H12.1559C11.3167 29.3541 10.6347 28.3936 10.1442 27.3334H3.50002V6.08341H6.33335V10.3334H17.6667V6.08341H20.5V13.2801C21.5059 13.4217 22.455 13.7192 23.3334 14.1301V6.08341C23.3334 4.52508 22.0584 3.25008 20.5 3.25008ZM12 6.08341C11.2209 6.08341 10.5834 5.44591 10.5834 4.66675C10.5834 3.88758 11.2209 3.25008 12 3.25008C12.7792 3.25008 13.4167 3.88758 13.4167 4.66675C13.4167 5.44591 12.7792 6.08341 12 6.08341Z" fill="#E68D4F"/>
</svg>
