<svg width="34" height="34" viewBox="0 0 34 34" fill="none" xmlns="http://www.w3.org/2000/svg">
<g clip-path="url(#clip0_39_1362)">
<path fill-rule="evenodd" clip-rule="evenodd" d="M2.29988 4.23296C2.94102 3.96824 3.66231 4.31796 4.11645 4.84253C4.44282 5.21997 4.84827 5.52095 5.30402 5.7241C5.84585 5.96633 6.44146 6.06314 7.03212 6.005C7.62277 5.94686 8.18807 5.73576 8.67227 5.39253C9.15646 5.04931 9.54284 4.5858 9.79328 4.04772C10.0437 3.50964 10.1496 2.91557 10.1005 2.3241C10.047 1.65867 10.2826 0.930099 10.8897 0.645956L11.8855 0.177242C12.445 -0.0550142 13.0735 -0.0578493 13.6351 0.169349C14.1967 0.396547 14.6465 0.835544 14.8872 1.39153L16.0626 4.10667L15.9363 4.3811L15.9339 4.38596L8.18674 22.2772L7.34645 24.1885L0.167594 7.5771C-0.0482366 7.03911 -0.0536402 6.43958 0.152458 5.89779C0.358557 5.35599 0.761053 4.91163 1.27988 4.6531L2.29988 4.23296ZM29.7962 9.09981C30.2455 8.57038 30.9692 8.2231 31.6103 8.48538L32.6862 8.92981C33.219 9.19428 33.6325 9.65 33.8441 10.206C34.0557 10.762 34.0498 11.3773 33.8276 11.9291L24.9099 32.572C24.6638 33.1436 24.2021 33.5951 23.6251 33.8284C23.048 34.0617 22.4023 34.0579 21.828 33.8178L11.05 29.2254C10.4785 28.9797 10.0269 28.5186 9.79321 27.9421C9.55952 27.3656 9.56258 26.7202 9.80174 26.146L10.9699 23.4915L18.7243 5.58567C18.97 5.01415 19.4311 4.56255 20.0076 4.32886C20.5841 4.09516 21.2295 4.09823 21.8037 4.33738L22.8577 4.83038C23.4649 5.11453 23.7005 5.8431 23.6397 6.51096C23.5949 7.01794 23.6604 7.52863 23.8319 8.00784C24.0034 8.48705 24.2767 8.92339 24.633 9.28681C24.9743 9.63289 25.3838 9.90425 25.8355 10.0837C26.2872 10.2631 26.7712 10.3467 27.2569 10.3291C27.7426 10.3115 28.2194 10.1931 28.6569 9.98153C29.0945 9.76991 29.4833 9.46966 29.7986 9.09981H29.7962Z" fill="#E68D4F"/>
</g>
<defs>
<clipPath id="clip0_39_1362">
<rect width="34" height="34" fill="white"/>
</clipPath>
</defs>
</svg>
